<svg xmlns="http://www.w3.org/2000/svg" viewBox="0 0 742 293" role="img" aria-label="Beat the Heat beach card artwork">
  <defs>
    <linearGradient id="sky" x1="0" y1="0" x2="1" y2="1">
      <stop offset="0" stop-color="#fff3dd"/>
      <stop offset="0.48" stop-color="#ffd6b5"/>
      <stop offset="1" stop-color="#6ed0c6"/>
    </linearGradient>
    <linearGradient id="water" x1="0" y1="0" x2="1" y2="0">
      <stop offset="0" stop-color="#9be1db"/>
      <stop offset="1" stop-color="#168c85"/>
    </linearGradient>
    <linearGradient id="table" x1="0" y1="0" x2="1" y2="1">
      <stop offset="0" stop-color="#f6d29a"/>
      <stop offset="1" stop-color="#b97948"/>
    </linearGradient>
    <filter id="shadow" x="-20%" y="-20%" width="140%" height="140%">
      <feDropShadow dx="0" dy="10" stdDeviation="8" flood-color="#073f3b" flood-opacity="0.24"/>
    </filter>
    <pattern id="paper" width="22" height="22" patternUnits="userSpaceOnUse">
      <path d="M0 22 L22 0" stroke="#fff7ec" stroke-opacity="0.22" stroke-width="2"/>
    </pattern>
  </defs>
  <rect width="742" height="293" rx="22" fill="url(#sky)"/>
  <rect width="742" height="293" rx="22" fill="url(#paper)" opacity="0.65"/>
  <circle cx="118" cy="78" r="46" fill="#ffe595" opacity="0.7"/>
  <path d="M0 152 C94 126 159 143 244 126 C335 108 401 136 491 116 C588 94 653 103 742 78 L742 293 L0 293 Z" fill="url(#water)" opacity="0.54"/>
  <path d="M0 177 C85 159 156 177 244 158 C343 137 414 165 509 146 C604 126 667 134 742 110" fill="none" stroke="#e8fffb" stroke-width="6" stroke-linecap="round" opacity="0.7"/>
  <path d="M0 196 C105 178 161 198 249 178 C342 157 422 186 520 164 C611 145 671 152 742 130" fill="none" stroke="#fff7ed" stroke-width="3" stroke-linecap="round" opacity="0.62"/>
  <path d="M0 233 C111 210 232 206 330 218 C445 232 585 225 742 196 L742 293 L0 293 Z" fill="url(#table)" opacity="0.9"/>
  <g opacity="0.24" fill="#0a6f68">
    <path d="M642 12 C615 42 605 69 610 102 C630 73 649 49 685 30 C670 27 657 20 642 12Z"/>
    <path d="M692 27 C650 52 629 85 628 132 C658 103 696 78 737 61 C720 52 706 41 692 27Z"/>
    <path d="M65 221 C39 231 23 249 15 281 C43 264 65 246 91 218 C82 221 74 222 65 221Z"/>
  </g>
  <g transform="translate(373 85) rotate(-8)" filter="url(#shadow)">
    <rect x="-124" y="-8" width="82" height="128" rx="10" fill="#fff8ea" stroke="#d9b17b" stroke-width="3"/>
    <rect x="-83" y="-17" width="82" height="128" rx="10" fill="#fff8ea" stroke="#d9b17b" stroke-width="3"/>
    <rect x="-42" y="-21" width="82" height="128" rx="10" fill="#fff8ea" stroke="#d9b17b" stroke-width="3"/>
    <rect x="-1" y="-18" width="82" height="128" rx="10" fill="#fff8ea" stroke="#d9b17b" stroke-width="3"/>
    <rect x="40" y="-8" width="82" height="128" rx="10" fill="#fff8ea" stroke="#d9b17b" stroke-width="3"/>
    <g fill="#0c4a45" font-family="Georgia, serif" font-weight="700" font-size="34">
      <text x="-104" y="34">16</text>
      <text x="-63" y="25">24</text>
      <text x="-21" y="20">55</text>
      <text x="21" y="27">72</text>
      <text x="61" y="37">98</text>
    </g>
    <g fill="#e95f42">
      <path d="M-100 76 c18 -8 28 2 18 17 c-9 14 -31 11 -33 -4 c-2 -7 4 -11 15 -13Z"/>
      <path d="M-59 70 c18 -8 28 2 18 17 c-9 14 -31 11 -33 -4 c-2 -7 4 -11 15 -13Z"/>
      <path d="M-17 66 c18 -8 28 2 18 17 c-9 14 -31 11 -33 -4 c-2 -7 4 -11 15 -13Z"/>
      <path d="M25 72 c18 -8 28 2 18 17 c-9 14 -31 11 -33 -4 c-2 -7 4 -11 15 -13Z"/>
      <path d="M66 82 c18 -8 28 2 18 17 c-9 14 -31 11 -33 -4 c-2 -7 4 -11 15 -13Z"/>
    </g>
    <g fill="#2c8c4e">
      <path d="M-86 73 c6 -11 15 -14 26 -10 c-8 3 -14 9 -16 18Z"/>
      <path d="M-45 67 c6 -11 15 -14 26 -10 c-8 3 -14 9 -16 18Z"/>
      <path d="M-3 63 c6 -11 15 -14 26 -10 c-8 3 -14 9 -16 18Z"/>
      <path d="M39 69 c6 -11 15 -14 26 -10 c-8 3 -14 9 -16 18Z"/>
      <path d="M80 79 c6 -11 15 -14 26 -10 c-8 3 -14 9 -16 18Z"/>
    </g>
  </g>
  <g transform="translate(590 175)" filter="url(#shadow)">
    <path d="M-26 56 h88 c10 0 18 -8 18 -18 v-8 h-124 v8 c0 10 8 18 18 18Z" fill="#158980"/>
    <path d="M-36 -30 h144 l-16 64 c-4 16 -18 27 -34 27 h-44 c-16 0 -30 -11 -34 -27Z" fill="#bff2e8" stroke="#0b6f67" stroke-width="5"/>
    <path d="M-18 -30 h92 c-5 44 -18 70 -46 78 c-27 -8 -41 -34 -46 -78Z" fill="#1aa095" opacity="0.32"/>
    <circle cx="23" cy="9" r="18" fill="#ffcf62"/>
    <path d="M74 -39 l25 -28" stroke="#0b6f67" stroke-width="7" stroke-linecap="round"/>
    <path d="M88 -69 c19 6 27 18 25 36 c-18 -3 -30 -13 -36 -29Z" fill="#46b269"/>
    <path d="M90 -34 c19 -7 35 -3 46 12 c-17 10 -34 9 -49 -2Z" fill="#2f9a56"/>
  </g>
</svg>
